<svg version="1.1" xmlns="http://www.w3.org/2000/svg" width="500" height="500">

<path d="M0 0 C7.93858429 3.96929215 15.58684044 7.9809684 23.1875 12.5 C31.56890542 17.43829038 39.99772883 22.27288912 48.5 27 C57.72954349 32.1358927 66.87237939 37.40213102 75.98046875 42.75 C83.1052819 46.92243959 90.28546141 50.98495244 97.5 55 C106.72931402 60.13631389 115.87236973 65.40212535 124.98046875 70.75 C132.10528309 74.92244029 139.28548765 78.98490371 146.5 83 C155.77445667 88.16217037 164.96627892 93.44916951 174.12109375 98.8203125 C180.87821742 102.77894196 187.67347736 106.66241248 194.5 110.5 C203.42202176 115.5171095 212.28092904 120.63397837 221.10961914 125.81347656 C226.10143766 128.73876525 231.10558763 131.63697881 236.14453125 134.48046875 C237.1195459 135.0314624 238.09456055 135.58245605 239.09912109 136.15014648 C240.95229356 137.19468796 242.80798741 138.23477224 244.66650391 139.26977539 C245.48683105 139.73246826 246.3071582 140.19516113 247.15234375 140.671875 C247.87413818 141.0750293 248.59593262 141.47818359 249.33959961 141.89355469 C251 143 251 143 252 145 C220.37695313 163.0703125 220.37695313 163.0703125 218.62315369 164.07247925 C216.89467507 165.06018566 215.16620959 166.04791507 213.43774414 167.03564453 C211.12971852 168.35446948 208.82162663 169.67317764 206.51342773 170.99169922 C201.23180111 174.00894269 195.9508377 177.02731869 190.67306519 180.05130005 C187.71996984 181.7432784 184.76637011 183.43437464 181.8125 185.125 C181.23149536 185.45755798 180.65049072 185.79011597 180.05187988 186.13275146 C171.81214849 190.84669898 163.54203158 195.50367995 155.25 200.125 C146.10554429 205.22214598 137.04640908 210.44998746 128.01855469 215.75048828 C119.85881504 220.52923087 111.61791893 225.15176686 103.35546875 229.75 C96.18646305 233.74964452 89.07907237 237.84348044 82 242 C73.8858087 246.76429581 65.72190613 251.42411392 57.5 256 C49.15757925 260.64472373 40.8664581 265.36577792 32.625 270.1875 C31.15039307 271.05012451 31.15039307 271.05012451 29.64599609 271.93017578 C25.80900412 274.17732821 21.97378477 276.4274691 18.140625 278.68115234 C15.47092108 280.24951018 12.7982316 281.81266516 10.125 283.375 C8.92931396 284.08112427 8.92931396 284.08112427 7.70947266 284.80151367 C2.22687435 288 2.22687435 288 0 288 C0 260.61 0 233.22 0 205 C-14.40928814 213.06920136 -28.73171099 221.15157922 -42.96875 229.5 C-50.13883283 233.68254832 -57.39156407 237.71356609 -64.64453125 241.75 C-72.81850488 246.31032402 -80.905239 251.00792502 -88.97607422 255.74780273 C-97.16549463 260.54450153 -105.43785781 265.18161409 -113.73461914 269.78955078 C-122.00829755 274.40136647 -130.16839656 279.18895665 -138.27392578 284.09008789 C-139.13099121 284.60434326 -139.98805664 285.11859863 -140.87109375 285.6484375 C-141.62318115 286.10395996 -142.37526855 286.55948242 -143.15014648 287.02880859 C-145 288 -145 288 -147 288 C-147 193.62 -147 99.24 -147 2 C-146.34 1.67 -145.68 1.34 -145 1 C-142.99487305 1.8894043 -142.99487305 1.8894043 -140.51171875 3.32421875 C-139.5889917 3.85192871 -138.66626465 4.37963867 -137.71557617 4.92333984 C-136.71631104 5.5055127 -135.7170459 6.08768555 -134.6875 6.6875 C-133.65149658 7.28256348 -132.61549316 7.87762695 -131.5480957 8.49072266 C-129.3987185 9.72581621 -127.25119385 10.9641389 -125.10546875 12.20556641 C-121.47826408 14.30147476 -117.83854762 16.37473085 -114.19726562 18.44604492 C-98.04459866 27.6426947 -81.94001633 36.92696613 -65.90356445 46.32470703 C-55.80182382 52.24323447 -45.63651048 58.02914061 -35.40576172 63.72167969 C-24.85965142 69.60409152 -14.4389235 75.69654133 -4.03344727 81.82348633 C-2.71109072 82.58857652 -1.3664523 83.31677385 0 84 C0 56.28 0 28.56 0 0 Z " fill="#FC6432" transform="translate(212,82)" data-index="1" style="visibility: visible; opacity: 1;"></path>
<path d="M0 0 C7.56307952 3.58481226 14.77686808 7.56218373 21.96044922 11.84228516 C27.9454328 15.40095926 33.99196945 18.83959535 40.0625 22.25 C48.0845874 26.76188195 56.05946026 31.34613528 64 36 C72.69207608 41.09278842 81.43083809 46.09282133 90.21044922 51.03295898 C98.53379884 55.72184068 106.81220613 60.48641781 115.07958984 65.27319336 C125.36305318 71.22417063 135.68339282 77.1047959 146 83 C146 122.93 146 162.86 146 204 C137.75 208.62 129.5 213.24 121 218 C112.01163997 223.24318634 112.01163997 223.24318634 103.03125 228.5 C95.86116717 232.68254832 88.60843593 236.71356609 81.35546875 240.75 C73.18149512 245.31032402 65.094761 250.00792502 57.02392578 254.74780273 C48.83450537 259.54450153 40.56214219 264.18161409 32.26538086 268.78955078 C23.99170245 273.40136647 15.83160344 278.18895665 7.72607422 283.09008789 C6.86900879 283.60434326 6.01194336 284.11859863 5.12890625 284.6484375 C4.37681885 285.10395996 3.62473145 285.55948242 2.84985352 286.02880859 C1 287 1 287 -1 287 C-1.02286511 250.58231349 -1.04049758 214.16462823 -1.05106533 177.74693603 C-1.05231611 173.45214028 -1.05361042 169.15734455 -1.05493164 164.86254883 C-1.05519395 164.00749531 -1.05545626 163.1524418 -1.05572652 162.27147757 C-1.06008348 148.40791822 -1.06797117 134.544363 -1.0771528 120.68080611 C-1.08648862 106.46637555 -1.09205546 92.25194717 -1.09408849 78.03751367 C-1.09546387 69.25921083 -1.09981524 60.48091964 -1.10791647 51.70262038 C-1.11318305 45.69139264 -1.1148045 39.68017097 -1.11350138 33.66894109 C-1.11285786 30.19547715 -1.11387705 26.72203365 -1.11920547 23.2485733 C-1.12413501 19.49167236 -1.12300103 15.7348225 -1.12025452 11.97792053 C-1.12316736 10.86802216 -1.1260802 9.75812379 -1.12908131 8.61459213 C-1.12709026 7.61634995 -1.12509921 6.61810777 -1.12304783 5.58961582 C-1.12342755 4.72119543 -1.12380727 3.85277503 -1.1241985 2.95803887 C-1 1 -1 1 0 0 Z " fill="#FDAC8E" transform="translate(66,83)" data-index="2" style="visibility: visible; opacity: 1;"></path>
</svg>